<svg xmlns="http://www.w3.org/2000/svg" viewBox="0 0 85 86" width="85" height="86">
	<style>
		tspan { white-space:pre }
		.shp0 { opacity: 0.502;fill: #9f9acf } 
		.shp1 { fill: #e5e5e5 } 
	</style>
	<g id="Arrow-Up">
		<path id="Rectangle 12" class="shp0" d="M0,85h84v-84h-84z" />
		<path id="interface - arrow top " class="shp1" d="M59.86,52.6l-16.92,-19.13c-0.28,-0.45 -0.9,-0.6 -1.38,-0.34c-0.48,0.26 -0.65,0.83 -0.37,1.28l16.92,19.13c0.28,0.45 0.9,0.6 1.38,0.34c0.48,-0.26 0.65,-0.83 0.37,-1.28zM24.51,53.88c0.48,0.26 1.1,0.1 1.38,-0.34l16.92,-19.13c0.28,-0.45 0.11,-1.02 -0.37,-1.28c-0.48,-0.26 -1.1,-0.1 -1.38,0.34l-16.92,19.13c-0.28,0.45 -0.11,1.02 0.37,1.28z" />
	</g>
</svg>